<svg width="439" height="458" viewBox="0 0 439 458" fill="none" xmlns="http://www.w3.org/2000/svg">
<g filter="url(#filter0_d_845_4288)">
<rect x="3" width="399" height="400" rx="100" fill="#092C4C" shape-rendering="crispEdges"/>
<rect x="3" width="399" height="400" rx="100" fill="url(#paint0_linear_845_4288)" shape-rendering="crispEdges"/>
<rect x="3" width="399" height="400" rx="100" fill="#8EC9FF" fill-opacity="0.05" shape-rendering="crispEdges"/>
<g filter="url(#filter1_dd_845_4288)">
<path d="M100.95 261.05C95.15 261.05 89.6 260.05 84.3 258.05C79.1 256.05 74.85 253 71.55 248.9C68.25 244.8 66.6 239.7 66.6 233.6C66.6 228.2 67.8 224 70.2 221C72.6 217.9 75.6 215.75 79.2 214.55C82.8 213.35 86.3 212.75 89.7 212.75C86.5 216.15 84.05 219.65 82.35 223.25C80.75 226.85 79.95 230.3 79.95 233.6C79.95 237 80.8 240.2 82.5 243.2C84.3 246.1 86.95 248.45 90.45 250.25C93.95 252.15 98.3 253.1 103.5 253.1C108 253.1 112.35 252.35 116.55 250.85C120.85 249.35 124.35 247.1 127.05 244.1C129.85 241.1 131.25 237.35 131.25 232.85C131.25 228.75 130.05 225.25 127.65 222.35C125.35 219.35 122.35 216.7 118.65 214.4C114.95 212 111.05 209.75 106.95 207.65C102.85 205.45 98.95 203.1 95.25 200.6C91.55 198.1 88.5 195.2 86.1 191.9C83.8 188.6 82.65 184.65 82.65 180.05C82.65 175.95 83.65 171.6 85.65 167C87.75 162.3 90.7 157.9 94.5 153.8C98.3 149.7 102.9 146.4 108.3 143.9C113.7 141.3 119.7 140 126.3 140C133.2 140 138.05 141.45 140.85 144.35C143.65 147.25 145.05 151.05 145.05 155.75C145.05 159.45 144.4 163.4 143.1 167.6C141.8 171.8 140.2 175.8 138.3 179.6C136.5 183.4 134.75 186.65 133.05 189.35C130.85 188.85 129.2 188 128.1 186.8C127 185.5 126.45 183.8 126.45 181.7C126.45 179.6 126.85 177.25 127.65 174.65C128.55 172.05 129.55 169.35 130.65 166.55C131.85 163.75 132.85 161.05 133.65 158.45C134.55 155.75 135 153.4 135 151.4C135 149.6 134.45 148.2 133.35 147.2C132.35 146.2 130.25 145.7 127.05 145.7C122.25 145.7 117.85 146.75 113.85 148.85C109.85 150.95 106.35 153.6 103.35 156.8C100.45 160 98.2 163.4 96.6 167C95 170.5 94.2 173.7 94.2 176.6C94.2 180.2 95.35 183.3 97.65 185.9C99.95 188.4 102.9 190.7 106.5 192.8C110.2 194.9 114.05 197 118.05 199.1C122.15 201.2 126 203.55 129.6 206.15C133.3 208.75 136.3 211.85 138.6 215.45C140.9 219.05 142.05 223.45 142.05 228.65C142.05 233.85 140.85 238.45 138.45 242.45C136.15 246.45 133 249.8 129 252.5C125 255.3 120.55 257.4 115.65 258.8C110.85 260.3 105.95 261.05 100.95 261.05ZM159.507 255.05C156.207 255.05 153.357 253.95 150.957 251.75C148.457 249.55 147.207 246.25 147.207 241.85C147.207 238.35 148.007 234.55 149.607 230.45C151.207 226.35 153.407 222.3 156.207 218.3C159.007 214.3 162.207 210.7 165.807 207.5C169.407 204.2 173.257 201.55 177.357 199.55C181.457 197.55 185.557 196.55 189.657 196.55C193.957 196.55 197.607 197.65 200.607 199.85C203.607 202.05 205.107 204.95 205.107 208.55C205.107 211.25 204.157 213.2 202.257 214.4C200.357 215.6 198.107 215.95 195.507 215.45C195.707 214.55 195.857 213.65 195.957 212.75C196.157 211.85 196.257 210.9 196.257 209.9C196.257 207.9 195.857 206.1 195.057 204.5C194.257 202.9 192.557 202.1 189.957 202.1C187.157 202.1 184.307 203.05 181.407 204.95C178.507 206.85 175.707 209.35 173.007 212.45C170.407 215.45 168.057 218.8 165.957 222.5C163.857 226.1 162.207 229.65 161.007 233.15C159.807 236.65 159.207 239.8 159.207 242.6C159.207 245.8 160.357 247.4 162.657 247.4C164.957 247.4 167.507 246.3 170.307 244.1C173.107 241.8 175.907 238.95 178.707 235.55C181.607 232.15 184.357 228.7 186.957 225.2C189.557 221.6 191.807 218.55 193.707 216.05C194.007 215.55 194.407 215.3 194.907 215.3C195.307 215.4 196.057 215.65 197.157 216.05C198.357 216.35 199.457 216.85 200.457 217.55C201.457 218.25 201.957 219.15 201.957 220.25C201.957 221.25 201.507 222.55 200.607 224.15C199.807 225.65 198.807 227.35 197.607 229.25C196.507 231.05 195.507 232.9 194.607 234.8C193.807 236.6 193.407 238.35 193.407 240.05C193.407 241.35 193.757 242.6 194.457 243.8C195.157 244.9 196.307 245.45 197.907 245.45C200.307 245.45 203.657 243.7 207.957 240.2C212.357 236.6 216.807 230.55 221.307 222.05L224.157 224.9C221.757 230.3 218.857 235.1 215.457 239.3C212.157 243.4 208.657 246.6 204.957 248.9C201.257 251.3 197.507 252.5 193.707 252.5C189.607 252.5 186.557 251.2 184.557 248.6C182.557 246 181.457 243.2 181.257 240.2C181.257 240 181.257 239.85 181.257 239.75C181.257 239.65 181.257 239.55 181.257 239.45C177.257 244.25 173.557 248.05 170.157 250.85C166.857 253.65 163.307 255.05 159.507 255.05ZM245.508 251.9C241.808 251.9 238.808 250.9 236.508 248.9C234.208 247 233.058 244.4 233.058 241.1C233.058 238.3 233.758 235.3 235.158 232.1C236.558 228.9 237.958 225.75 239.358 222.65C240.858 219.55 241.608 216.8 241.608 214.4C241.608 212.1 240.858 210.2 239.358 208.7C237.858 207.1 236.108 205.8 234.108 204.8C231.908 210.3 229.408 215.65 226.608 220.85C223.908 225.95 221.708 229.95 220.008 232.85L217.758 228.5C219.158 225.9 221.008 222.2 223.308 217.4C225.608 212.6 227.808 207.25 229.908 201.35C228.908 200.35 228.408 199 228.408 197.3C228.408 194.7 229.208 192.25 230.808 189.95C232.408 187.65 233.958 186.5 235.458 186.5C236.658 186.5 237.508 187.2 238.008 188.6C238.608 189.9 238.908 190.8 238.908 191.3C238.908 191.8 238.658 192.7 238.158 194C237.758 195.3 237.458 196.25 237.258 196.85C237.358 197.95 238.208 199.05 239.808 200.15C241.508 201.15 243.408 202.35 245.508 203.75C247.608 205.15 249.458 206.9 251.058 209C252.658 211.1 253.458 213.75 253.458 216.95C253.458 219.85 252.808 222.8 251.508 225.8C250.208 228.8 248.908 231.6 247.608 234.2C246.308 236.8 245.658 239.05 245.658 240.95C245.658 242.35 246.008 243.3 246.708 243.8C247.508 244.2 248.408 244.4 249.408 244.4C251.808 244.4 254.308 243.7 256.908 242.3C259.508 240.8 262.058 238.9 264.558 236.6C267.058 234.3 269.258 231.9 271.158 229.4C273.058 226.8 274.508 224.45 275.508 222.35L279.108 225.05C277.208 229.35 274.458 233.6 270.858 237.8C267.258 241.9 263.258 245.3 258.858 248C254.458 250.6 250.008 251.9 245.508 251.9ZM280.65 255.05C277.35 255.05 274.5 253.95 272.1 251.75C269.6 249.55 268.35 246.25 268.35 241.85C268.35 238.35 269.15 234.55 270.75 230.45C272.35 226.35 274.55 222.3 277.35 218.3C280.15 214.3 283.35 210.7 286.95 207.5C290.55 204.2 294.4 201.55 298.5 199.55C302.6 197.55 306.7 196.55 310.8 196.55C315.1 196.55 318.75 197.65 321.75 199.85C324.75 202.05 326.25 204.95 326.25 208.55C326.25 211.25 325.3 213.2 323.4 214.4C321.5 215.6 319.25 215.95 316.65 215.45C316.85 214.55 317 213.65 317.1 212.75C317.3 211.85 317.4 210.9 317.4 209.9C317.4 207.9 317 206.1 316.2 204.5C315.4 202.9 313.7 202.1 311.1 202.1C308.3 202.1 305.45 203.05 302.55 204.95C299.65 206.85 296.85 209.35 294.15 212.45C291.55 215.45 289.2 218.8 287.1 222.5C285 226.1 283.35 229.65 282.15 233.15C280.95 236.65 280.35 239.8 280.35 242.6C280.35 245.8 281.5 247.4 283.8 247.4C286.1 247.4 288.65 246.3 291.45 244.1C294.25 241.8 297.05 238.95 299.85 235.55C302.75 232.15 305.5 228.7 308.1 225.2C310.7 221.6 312.95 218.55 314.85 216.05C315.15 215.55 315.55 215.3 316.05 215.3C316.45 215.4 317.2 215.65 318.3 216.05C319.5 216.35 320.6 216.85 321.6 217.55C322.6 218.25 323.1 219.15 323.1 220.25C323.1 221.25 322.65 222.55 321.75 224.15C320.95 225.65 319.95 227.35 318.75 229.25C317.65 231.05 316.65 232.9 315.75 234.8C314.95 236.6 314.55 238.35 314.55 240.05C314.55 241.35 314.9 242.6 315.6 243.8C316.3 244.9 317.45 245.45 319.05 245.45C321.45 245.45 324.8 243.7 329.1 240.2C333.5 236.6 337.95 230.55 342.45 222.05L345.3 224.9C342.9 230.3 340 235.1 336.6 239.3C333.3 243.4 329.8 246.6 326.1 248.9C322.4 251.3 318.65 252.5 314.85 252.5C310.75 252.5 307.7 251.2 305.7 248.6C303.7 246 302.6 243.2 302.4 240.2C302.4 240 302.4 239.85 302.4 239.75C302.4 239.65 302.4 239.55 302.4 239.45C298.4 244.25 294.7 248.05 291.3 250.85C288 253.65 284.45 255.05 280.65 255.05Z" fill="white"/>
</g>
</g>
<defs>
<filter id="filter0_d_845_4288" x="0" y="0" width="439" height="458" filterUnits="userSpaceOnUse" color-interpolation-filters="sRGB">
<feFlood flood-opacity="0" result="BackgroundImageFix"/>
<feColorMatrix in="SourceAlpha" type="matrix" values="0 0 0 0 0 0 0 0 0 0 0 0 0 0 0 0 0 0 127 0" result="hardAlpha"/>
<feOffset dx="17" dy="38"/>
<feGaussianBlur stdDeviation="10"/>
<feComposite in2="hardAlpha" operator="out"/>
<feColorMatrix type="matrix" values="0 0 0 0 0.2 0 0 0 0 0.380392 0 0 0 0 0.513726 0 0 0 0.2 0"/>
<feBlend mode="normal" in2="BackgroundImageFix" result="effect1_dropShadow_845_4288"/>
<feBlend mode="normal" in="SourceGraphic" in2="effect1_dropShadow_845_4288" result="shape"/>
</filter>
<filter id="filter1_dd_845_4288" x="66.6001" y="139" width="294.7" height="137.05" filterUnits="userSpaceOnUse" color-interpolation-filters="sRGB">
<feFlood flood-opacity="0" result="BackgroundImageFix"/>
<feColorMatrix in="SourceAlpha" type="matrix" values="0 0 0 0 0 0 0 0 0 0 0 0 0 0 0 0 0 0 127 0" result="hardAlpha"/>
<feOffset dx="5" dy="4"/>
<feGaussianBlur stdDeviation="2"/>
<feComposite in2="hardAlpha" operator="out"/>
<feColorMatrix type="matrix" values="0 0 0 0 0 0 0 0 0 0 0 0 0 0 0 0 0 0 0.25 0"/>
<feBlend mode="normal" in2="BackgroundImageFix" result="effect1_dropShadow_845_4288"/>
<feColorMatrix in="SourceAlpha" type="matrix" values="0 0 0 0 0 0 0 0 0 0 0 0 0 0 0 0 0 0 127 0" result="hardAlpha"/>
<feOffset dx="8" dy="7"/>
<feGaussianBlur stdDeviation="4"/>
<feComposite in2="hardAlpha" operator="out"/>
<feColorMatrix type="matrix" values="0 0 0 0 0 0 0 0 0 0 0 0 0 0 0 0 0 0 0.25 0"/>
<feBlend mode="normal" in2="effect1_dropShadow_845_4288" result="effect2_dropShadow_845_4288"/>
<feBlend mode="normal" in="SourceGraphic" in2="effect2_dropShadow_845_4288" result="shape"/>
</filter>
<linearGradient id="paint0_linear_845_4288" x1="202.5" y1="0" x2="202.5" y2="400" gradientUnits="userSpaceOnUse">
<stop stop-color="#7FA9C6"/>
<stop offset="0.0053398" stop-color="#7FA9C6" stop-opacity="0.9"/>
<stop offset="0.0395856" stop-color="#7FA9C6" stop-opacity="0.8"/>
<stop offset="0.0681238" stop-color="#7FA9C6" stop-opacity="0.7"/>
<stop offset="0.10237" stop-color="#7FA9C6" stop-opacity="0.6"/>
<stop offset="0.153738" stop-color="#7FA9C6" stop-opacity="0.5"/>
<stop offset="0.216522" stop-color="#7FA9C6" stop-opacity="0.4"/>
<stop offset="0.276452" stop-color="#7FA9C6" stop-opacity="0.3"/>
<stop offset="0.350652" stop-color="#7FA9C6" stop-opacity="0.2"/>
<stop offset="0.601788" stop-color="#7FA9C6" stop-opacity="0.1"/>
<stop offset="0.915708" stop-color="#7FA9C6" stop-opacity="0"/>
</linearGradient>
</defs>
</svg>
